<svg xmlns="http://www.w3.org/2000/svg" xmlns:xlink="http://www.w3.org/1999/xlink" width="150" zoomAndPan="magnify" viewBox="0 0 112.5 112.499997" height="150" preserveAspectRatio="xMidYMid meet" version="1.0"><defs><clipPath id="3b859d0b5f"><path d="M 35.171875 45 L 77.171875 45 L 77.171875 67 L 35.171875 67 Z M 35.171875 45 " clip-rule="nonzero"/></clipPath><clipPath id="21b518196b"><path d="M 54 32.640625 L 58 32.640625 L 58 79.890625 L 54 79.890625 Z M 54 32.640625 " clip-rule="nonzero"/></clipPath><clipPath id="e203e444c4"><path d="M 1.042969 40 L 31 40 L 31 72 L 1.042969 72 Z M 1.042969 40 " clip-rule="nonzero"/></clipPath><clipPath id="ca06705e0c"><path d="M 1.042969 39.953125 L 31.042969 39.953125 L 31.042969 72.203125 L 1.042969 72.203125 Z M 1.042969 39.953125 " clip-rule="nonzero"/></clipPath><clipPath id="5590bfa35f"><path d="M 81.445312 39.953125 L 111.222656 39.953125 L 111.222656 72.203125 L 81.445312 72.203125 Z M 81.445312 39.953125 " clip-rule="nonzero"/></clipPath></defs><path fill="#bffdfe" d="M 75.359375 42.972656 C 72.253906 45.347656 69.109375 47.660156 65.984375 50.007812 L 56.535156 56.941406 C 54.960938 58.101562 53.394531 59.265625 51.835938 60.449219 C 50.273438 61.617188 48.664062 62.722656 47.011719 63.765625 C 45.347656 64.792969 43.679688 65.804688 41.960938 66.75 C 40.246094 67.703125 38.507812 68.613281 36.6875 69.410156 C 36.621094 69.4375 36.542969 69.40625 36.515625 69.339844 C 36.492188 69.289062 36.507812 69.230469 36.542969 69.195312 C 37.945312 67.785156 39.425781 66.492188 40.9375 65.242188 C 42.441406 63.984375 43.996094 62.796875 45.554688 61.621094 C 47.125 60.457031 48.738281 59.359375 50.398438 58.328125 C 52.0625 57.304688 53.71875 56.269531 55.371094 55.226562 L 65.257812 48.9375 C 68.578125 46.878906 71.875 44.789062 75.214844 42.757812 C 75.277344 42.71875 75.355469 42.738281 75.394531 42.800781 C 75.425781 42.859375 75.410156 42.933594 75.359375 42.972656 Z M 75.359375 42.972656 " fill-opacity="1" fill-rule="nonzero"/><path fill="#bffdfe" d="M 72.1875 41.527344 C 72.085938 42.1875 71.964844 42.832031 71.941406 43.449219 C 71.914062 44.054688 71.953125 44.664062 72.152344 45.023438 C 72.242188 45.210938 72.394531 45.289062 72.535156 45.316406 C 72.65625 45.359375 72.792969 45.40625 72.949219 45.542969 C 73.117188 45.671875 73.339844 45.808594 73.613281 45.984375 C 73.882812 46.152344 74.203125 46.34375 74.53125 46.644531 C 74.589844 46.703125 74.597656 46.796875 74.539062 46.855469 C 74.539062 46.859375 74.535156 46.859375 74.535156 46.863281 C 74.21875 47.175781 73.886719 47.375 73.511719 47.503906 C 73.140625 47.632812 72.714844 47.679688 72.269531 47.597656 C 71.828125 47.5 71.355469 47.277344 71.03125 46.835938 C 70.859375 46.636719 70.757812 46.382812 70.648438 46.15625 C 70.582031 45.914062 70.496094 45.679688 70.480469 45.453125 C 70.351562 44.539062 70.617188 43.820312 70.898438 43.175781 C 71.203125 42.535156 71.574219 41.96875 71.992188 41.4375 C 72.027344 41.390625 72.097656 41.382812 72.144531 41.417969 C 72.179688 41.449219 72.195312 41.488281 72.1875 41.527344 Z M 72.1875 41.527344 " fill-opacity="1" fill-rule="nonzero"/><path fill="#bffdfe" d="M 68.613281 42.355469 C 68.410156 43.246094 68.230469 44.121094 68.175781 44.996094 C 68.125 45.878906 68.003906 46.835938 68.222656 47.375 C 68.34375 47.664062 68.445312 47.625 68.664062 47.683594 C 68.886719 47.738281 69.269531 47.832031 69.738281 48.046875 C 70.144531 48.253906 70.503906 48.464844 70.890625 48.730469 C 71.269531 48.988281 71.652344 49.277344 72.027344 49.675781 C 72.078125 49.726562 72.074219 49.808594 72.023438 49.859375 C 72.011719 49.871094 71.996094 49.878906 71.984375 49.886719 C 71.476562 50.09375 70.988281 50.175781 70.5 50.203125 C 70.015625 50.234375 69.511719 50.183594 69.070312 50.101562 C 68.6875 50.039062 68.179688 49.933594 67.613281 49.546875 C 67.339844 49.347656 67.050781 49.070312 66.859375 48.730469 C 66.667969 48.398438 66.566406 48.019531 66.535156 47.726562 C 66.460938 47.105469 66.566406 46.570312 66.683594 46.09375 C 66.828125 45.605469 66.96875 45.214844 67.128906 44.753906 C 67.480469 43.867188 67.894531 43.03125 68.417969 42.269531 C 68.453125 42.21875 68.519531 42.207031 68.570312 42.238281 C 68.605469 42.269531 68.625 42.3125 68.613281 42.355469 Z M 68.613281 42.355469 " fill-opacity="1" fill-rule="nonzero"/><path fill="#bffdfe" d="M 63.796875 44.5625 C 63.554688 45.621094 63.269531 46.660156 63.140625 47.695312 C 63.0625 48.207031 63.015625 48.71875 63.011719 49.222656 C 62.980469 49.765625 63.054688 50.105469 63.203125 50.394531 C 63.5 50.945312 64.328125 50.984375 65.191406 51.339844 C 65.632812 51.5 66.121094 51.652344 66.621094 51.855469 C 67.121094 52.050781 67.652344 52.265625 68.167969 52.621094 C 68.222656 52.65625 68.238281 52.734375 68.199219 52.792969 C 68.183594 52.808594 68.167969 52.824219 68.148438 52.832031 L 68.144531 52.835938 C 67.597656 53.097656 67.058594 53.269531 66.496094 53.371094 C 65.933594 53.480469 65.355469 53.519531 64.75 53.457031 C 64.152344 53.394531 63.523438 53.203125 62.941406 52.804688 C 62.367188 52.421875 61.824219 51.765625 61.601562 51.03125 C 61.375 50.3125 61.464844 49.546875 61.59375 49.035156 C 61.726562 48.476562 61.898438 47.933594 62.101562 47.410156 C 62.535156 46.375 63.035156 45.414062 63.597656 44.484375 C 63.628906 44.433594 63.695312 44.414062 63.746094 44.445312 C 63.789062 44.472656 63.804688 44.519531 63.796875 44.5625 Z M 63.796875 44.5625 " fill-opacity="1" fill-rule="nonzero"/><path fill="#bffdfe" d="M 41.097656 70.269531 C 41.199219 69.609375 41.320312 68.96875 41.34375 68.347656 C 41.375 67.742188 41.332031 67.132812 41.136719 66.777344 C 41.042969 66.589844 40.894531 66.507812 40.75 66.480469 C 40.632812 66.441406 40.496094 66.394531 40.335938 66.253906 C 40.167969 66.128906 39.945312 65.988281 39.675781 65.816406 C 39.402344 65.644531 39.085938 65.457031 38.753906 65.152344 C 38.695312 65.097656 38.691406 65.003906 38.746094 64.941406 C 38.746094 64.941406 38.75 64.9375 38.75 64.9375 C 39.066406 64.621094 39.398438 64.421875 39.773438 64.296875 C 40.148438 64.164062 40.570312 64.121094 41.015625 64.203125 C 41.457031 64.296875 41.929688 64.523438 42.253906 64.964844 C 42.429688 65.164062 42.53125 65.414062 42.636719 65.644531 C 42.707031 65.882812 42.789062 66.121094 42.804688 66.34375 C 42.933594 67.257812 42.671875 67.980469 42.386719 68.625 C 42.085938 69.265625 41.714844 69.832031 41.296875 70.359375 C 41.257812 70.410156 41.191406 70.417969 41.140625 70.378906 C 41.105469 70.351562 41.09375 70.308594 41.097656 70.269531 Z M 41.097656 70.269531 " fill-opacity="1" fill-rule="nonzero"/><path fill="#bffdfe" d="M 44.671875 69.441406 C 44.875 68.550781 45.058594 67.675781 45.109375 66.800781 C 45.164062 65.917969 45.285156 64.964844 45.066406 64.421875 C 44.941406 64.136719 44.84375 64.171875 44.625 64.117188 C 44.398438 64.0625 44.019531 63.96875 43.550781 63.75 C 43.140625 63.546875 42.785156 63.332031 42.398438 63.066406 C 42.015625 62.808594 41.632812 62.523438 41.257812 62.125 C 41.207031 62.074219 41.210938 61.992188 41.261719 61.941406 C 41.273438 61.929688 41.289062 61.917969 41.304688 61.914062 C 41.808594 61.703125 42.300781 61.621094 42.789062 61.597656 C 43.269531 61.5625 43.773438 61.613281 44.21875 61.695312 C 44.601562 61.761719 45.109375 61.867188 45.671875 62.253906 C 45.945312 62.449219 46.234375 62.730469 46.425781 63.070312 C 46.621094 63.402344 46.722656 63.777344 46.75 64.074219 C 46.824219 64.691406 46.722656 65.230469 46.601562 65.707031 C 46.460938 66.191406 46.316406 66.582031 46.15625 67.046875 C 45.804688 67.929688 45.390625 68.769531 44.871094 69.53125 C 44.835938 69.582031 44.765625 69.59375 44.71875 69.558594 C 44.679688 69.53125 44.664062 69.484375 44.671875 69.441406 Z M 44.671875 69.441406 " fill-opacity="1" fill-rule="nonzero"/><path fill="#bffdfe" d="M 49.492188 67.234375 C 49.734375 66.175781 50.015625 65.140625 50.144531 64.105469 C 50.226562 63.589844 50.269531 63.078125 50.277344 62.578125 C 50.308594 62.035156 50.234375 61.691406 50.082031 61.402344 C 49.789062 60.851562 48.960938 60.8125 48.097656 60.457031 C 47.65625 60.296875 47.167969 60.144531 46.667969 59.941406 C 46.167969 59.746094 45.636719 59.535156 45.121094 59.179688 C 45.066406 59.140625 45.050781 59.0625 45.089844 59.007812 C 45.101562 58.988281 45.117188 58.972656 45.136719 58.964844 L 45.140625 58.964844 C 45.691406 58.699219 46.226562 58.527344 46.792969 58.425781 C 47.355469 58.316406 47.933594 58.28125 48.535156 58.339844 C 49.136719 58.402344 49.761719 58.59375 50.34375 58.992188 C 50.921875 59.378906 51.464844 60.035156 51.683594 60.769531 C 51.910156 61.484375 51.820312 62.25 51.695312 62.761719 C 51.5625 63.324219 51.386719 63.867188 51.183594 64.386719 C 50.753906 65.421875 50.25 66.386719 49.691406 67.316406 C 49.660156 67.367188 49.59375 67.382812 49.542969 67.351562 C 49.5 67.328125 49.480469 67.277344 49.492188 67.234375 Z M 49.492188 67.234375 " fill-opacity="1" fill-rule="nonzero"/><g clip-path="url(#3b859d0b5f)"><path fill="#bffdfe" d="M 76.976562 66.804688 C 73.40625 65.222656 69.867188 63.574219 66.308594 61.960938 L 55.703125 57.003906 C 53.929688 56.179688 52.15625 55.367188 50.375 54.570312 C 48.597656 53.757812 46.855469 52.878906 45.152344 51.929688 C 43.453125 50.964844 41.761719 49.984375 40.109375 48.933594 C 38.449219 47.886719 36.816406 46.796875 35.242188 45.582031 C 35.183594 45.535156 35.175781 45.453125 35.21875 45.394531 C 35.253906 45.351562 35.308594 45.335938 35.359375 45.347656 C 37.265625 45.902344 39.109375 46.582031 40.929688 47.304688 C 42.75 48.019531 44.539062 48.808594 46.316406 49.613281 C 48.089844 50.429688 49.828125 51.320312 51.527344 52.277344 C 53.222656 53.25 54.925781 54.203125 56.632812 55.152344 L 66.894531 60.804688 C 70.292969 62.730469 73.710938 64.621094 77.09375 66.574219 C 77.15625 66.609375 77.175781 66.691406 77.140625 66.753906 C 77.109375 66.808594 77.035156 66.832031 76.976562 66.804688 Z M 76.976562 66.804688 " fill-opacity="1" fill-rule="nonzero"/></g><path fill="#bffdfe" d="M 76.703125 63.316406 C 76.078125 63.546875 75.457031 63.75 74.910156 64.03125 C 74.367188 64.296875 73.855469 64.628906 73.636719 64.976562 C 73.519531 65.144531 73.519531 65.316406 73.566406 65.457031 C 73.589844 65.582031 73.613281 65.726562 73.570312 65.929688 C 73.539062 66.140625 73.53125 66.402344 73.507812 66.726562 C 73.492188 67.046875 73.480469 67.414062 73.375 67.851562 C 73.355469 67.933594 73.277344 67.980469 73.195312 67.960938 C 73.195312 67.960938 73.191406 67.960938 73.1875 67.960938 C 72.761719 67.835938 72.429688 67.640625 72.136719 67.371094 C 71.839844 67.105469 71.597656 66.753906 71.453125 66.324219 C 71.324219 65.890625 71.289062 65.367188 71.519531 64.867188 C 71.609375 64.621094 71.777344 64.410156 71.925781 64.203125 C 72.101562 64.027344 72.269531 63.839844 72.457031 63.71875 C 73.191406 63.164062 73.945312 63.046875 74.644531 62.984375 C 75.351562 62.9375 76.023438 62.992188 76.683594 63.101562 C 76.746094 63.113281 76.785156 63.171875 76.777344 63.230469 C 76.769531 63.273438 76.738281 63.304688 76.703125 63.316406 Z M 76.703125 63.316406 " fill-opacity="1" fill-rule="nonzero"/><path fill="#bffdfe" d="M 74.253906 60.574219 C 73.378906 60.828125 72.527344 61.089844 71.742188 61.46875 C 70.945312 61.847656 70.054688 62.203125 69.6875 62.65625 C 69.496094 62.90625 69.578125 62.972656 69.632812 63.191406 C 69.695312 63.417969 69.796875 63.796875 69.835938 64.3125 C 69.851562 64.773438 69.839844 65.191406 69.796875 65.65625 C 69.753906 66.117188 69.691406 66.59375 69.527344 67.113281 C 69.503906 67.183594 69.429688 67.222656 69.363281 67.199219 C 69.347656 67.195312 69.332031 67.1875 69.320312 67.179688 C 68.894531 66.835938 68.585938 66.441406 68.328125 66.023438 C 68.0625 65.617188 67.863281 65.148438 67.722656 64.71875 C 67.59375 64.351562 67.441406 63.855469 67.503906 63.171875 C 67.542969 62.835938 67.644531 62.445312 67.847656 62.113281 C 68.046875 61.78125 68.324219 61.511719 68.566406 61.34375 C 69.070312 60.980469 69.589844 60.808594 70.0625 60.683594 C 70.554688 60.574219 70.964844 60.511719 71.445312 60.429688 C 72.386719 60.308594 73.316406 60.269531 74.234375 60.359375 C 74.292969 60.367188 74.339844 60.421875 74.332031 60.480469 C 74.328125 60.527344 74.292969 60.5625 74.253906 60.574219 Z M 74.253906 60.574219 " fill-opacity="1" fill-rule="nonzero"/><path fill="#bffdfe" d="M 70 57.40625 C 68.960938 57.703125 67.921875 57.957031 66.953125 58.34375 C 66.46875 58.523438 66 58.730469 65.5625 58.96875 C 65.074219 59.203125 64.808594 59.433594 64.628906 59.707031 C 64.292969 60.230469 64.660156 60.980469 64.765625 61.910156 C 64.839844 62.375 64.945312 62.878906 65.007812 63.414062 C 65.082031 63.949219 65.152344 64.519531 65.089844 65.140625 C 65.085938 65.210938 65.023438 65.261719 64.957031 65.253906 C 64.933594 65.25 64.914062 65.242188 64.898438 65.230469 L 64.894531 65.230469 C 64.398438 64.871094 63.988281 64.484375 63.628906 64.035156 C 63.261719 63.59375 62.949219 63.105469 62.710938 62.542969 C 62.476562 61.984375 62.339844 61.34375 62.40625 60.636719 C 62.464844 59.945312 62.773438 59.148438 63.304688 58.601562 C 63.820312 58.058594 64.53125 57.765625 65.039062 57.628906 C 65.59375 57.476562 66.148438 57.367188 66.699219 57.292969 C 67.8125 57.171875 68.894531 57.148438 69.976562 57.191406 C 70.035156 57.195312 70.082031 57.246094 70.082031 57.304688 C 70.078125 57.351562 70.042969 57.394531 70 57.40625 Z M 70 57.40625 " fill-opacity="1" fill-rule="nonzero"/><path fill="#bffdfe" d="M 36.621094 49.875 C 37.246094 49.644531 37.867188 49.441406 38.417969 49.160156 C 38.960938 48.894531 39.46875 48.5625 39.6875 48.21875 C 39.808594 48.046875 39.804688 47.875 39.757812 47.738281 C 39.734375 47.613281 39.710938 47.46875 39.753906 47.261719 C 39.785156 47.050781 39.796875 46.789062 39.820312 46.464844 C 39.835938 46.148438 39.84375 45.777344 39.949219 45.339844 C 39.96875 45.257812 40.050781 45.210938 40.128906 45.230469 C 40.132812 45.230469 40.136719 45.230469 40.136719 45.230469 C 40.566406 45.359375 40.898438 45.550781 41.191406 45.820312 C 41.484375 46.085938 41.726562 46.4375 41.871094 46.867188 C 42 47.300781 42.035156 47.824219 41.808594 48.324219 C 41.71875 48.570312 41.546875 48.785156 41.398438 48.988281 C 41.222656 49.164062 41.058594 49.351562 40.871094 49.476562 C 40.136719 50.03125 39.378906 50.144531 38.679688 50.210938 C 37.976562 50.253906 37.304688 50.199219 36.640625 50.089844 C 36.582031 50.078125 36.539062 50.023438 36.550781 49.960938 C 36.554688 49.921875 36.585938 49.886719 36.621094 49.875 Z M 36.621094 49.875 " fill-opacity="1" fill-rule="nonzero"/><path fill="#bffdfe" d="M 39.074219 52.617188 C 39.945312 52.367188 40.796875 52.101562 41.585938 51.722656 C 42.378906 51.34375 43.273438 50.988281 43.636719 50.535156 C 43.828125 50.289062 43.746094 50.21875 43.691406 50 C 43.628906 49.777344 43.527344 49.394531 43.488281 48.878906 C 43.472656 48.417969 43.484375 48.003906 43.527344 47.535156 C 43.570312 47.074219 43.636719 46.597656 43.800781 46.078125 C 43.820312 46.007812 43.894531 45.96875 43.960938 45.992188 C 43.976562 45.996094 43.992188 46.003906 44.003906 46.015625 C 44.429688 46.359375 44.742188 46.75 45 47.167969 C 45.261719 47.574219 45.460938 48.042969 45.605469 48.472656 C 45.734375 48.839844 45.886719 49.339844 45.820312 50.023438 C 45.78125 50.359375 45.679688 50.746094 45.476562 51.078125 C 45.277344 51.410156 45 51.679688 44.757812 51.847656 C 44.253906 52.210938 43.734375 52.382812 43.261719 52.507812 C 42.769531 52.617188 42.359375 52.679688 41.878906 52.761719 C 40.9375 52.882812 40.007812 52.921875 39.089844 52.832031 C 39.03125 52.824219 38.988281 52.773438 38.992188 52.710938 C 38.996094 52.667969 39.03125 52.628906 39.074219 52.617188 Z M 39.074219 52.617188 " fill-opacity="1" fill-rule="nonzero"/><path fill="#bffdfe" d="M 43.324219 55.785156 C 44.363281 55.488281 45.402344 55.234375 46.371094 54.847656 C 46.855469 54.671875 47.324219 54.460938 47.765625 54.226562 C 48.253906 53.992188 48.515625 53.757812 48.695312 53.488281 C 49.03125 52.960938 48.664062 52.214844 48.558594 51.285156 C 48.484375 50.816406 48.382812 50.316406 48.316406 49.777344 C 48.242188 49.246094 48.171875 48.675781 48.234375 48.050781 C 48.238281 47.984375 48.300781 47.933594 48.367188 47.941406 C 48.390625 47.941406 48.410156 47.949219 48.429688 47.960938 L 48.429688 47.964844 C 48.925781 48.320312 49.335938 48.710938 49.695312 49.15625 C 50.0625 49.601562 50.375 50.089844 50.613281 50.648438 C 50.847656 51.207031 50.984375 51.851562 50.917969 52.554688 C 50.863281 53.246094 50.554688 54.042969 50.019531 54.589844 C 49.503906 55.136719 48.792969 55.425781 48.285156 55.5625 C 47.730469 55.71875 47.175781 55.828125 46.625 55.898438 C 45.515625 56.023438 44.429688 56.046875 43.347656 56 C 43.289062 56 43.242188 55.949219 43.246094 55.886719 C 43.25 55.839844 43.28125 55.800781 43.324219 55.785156 Z M 43.324219 55.785156 " fill-opacity="1" fill-rule="nonzero"/><g clip-path="url(#21b518196b)"><path fill="#bffdfe" d="M 54.816406 32.796875 C 55.214844 36.699219 55.546875 40.601562 55.914062 44.503906 L 56.882812 56.214844 C 57.050781 58.167969 57.226562 60.117188 57.421875 62.066406 C 57.597656 64.019531 57.703125 65.972656 57.722656 67.933594 C 57.730469 69.894531 57.722656 71.855469 57.632812 73.820312 C 57.550781 75.78125 57.417969 77.75 57.144531 79.722656 C 57.136719 79.796875 57.070312 79.847656 56.996094 79.835938 C 56.941406 79.828125 56.898438 79.789062 56.886719 79.734375 C 56.421875 77.800781 56.09375 75.855469 55.820312 73.910156 C 55.535156 71.964844 55.332031 70.015625 55.144531 68.0625 C 54.972656 66.109375 54.882812 64.15625 54.867188 62.195312 C 54.863281 60.234375 54.847656 58.277344 54.820312 56.320312 L 54.625 44.566406 C 54.605469 40.648438 54.546875 36.730469 54.558594 32.8125 C 54.558594 32.738281 54.617188 32.679688 54.6875 32.679688 C 54.753906 32.679688 54.808594 32.730469 54.816406 32.796875 Z M 54.816406 32.796875 " fill-opacity="1" fill-rule="nonzero"/></g><path fill="#bffdfe" d="M 51.9375 34.765625 C 52.445312 35.195312 52.929688 35.636719 53.441406 35.976562 C 53.941406 36.320312 54.484375 36.601562 54.890625 36.617188 C 55.09375 36.636719 55.242188 36.550781 55.339844 36.441406 C 55.4375 36.359375 55.546875 36.265625 55.746094 36.203125 C 55.945312 36.125 56.175781 36.003906 56.46875 35.867188 C 56.753906 35.722656 57.078125 35.546875 57.507812 35.421875 C 57.585938 35.398438 57.667969 35.445312 57.691406 35.523438 C 57.691406 35.523438 57.695312 35.527344 57.695312 35.53125 C 57.796875 35.964844 57.792969 36.351562 57.707031 36.742188 C 57.625 37.128906 57.441406 37.515625 57.136719 37.855469 C 56.828125 38.183594 56.390625 38.472656 55.847656 38.519531 C 55.585938 38.5625 55.320312 38.519531 55.070312 38.492188 C 54.832031 38.425781 54.585938 38.375 54.386719 38.273438 C 53.542969 37.90625 53.066406 37.304688 52.667969 36.726562 C 52.277344 36.136719 51.992188 35.519531 51.757812 34.886719 C 51.738281 34.832031 51.769531 34.765625 51.824219 34.746094 C 51.863281 34.730469 51.90625 34.738281 51.9375 34.765625 Z M 51.9375 34.765625 " fill-opacity="1" fill-rule="nonzero"/><path fill="#bffdfe" d="M 50.78125 38.261719 C 51.429688 38.898438 52.078125 39.511719 52.796875 40.011719 C 53.519531 40.515625 54.269531 41.117188 54.839844 41.214844 C 55.148438 41.257812 55.167969 41.152344 55.332031 40.992188 C 55.492188 40.828125 55.773438 40.550781 56.203125 40.261719 C 56.589844 40.019531 56.953125 39.824219 57.382812 39.632812 C 57.800781 39.4375 58.246094 39.261719 58.777344 39.144531 C 58.847656 39.128906 58.917969 39.175781 58.933594 39.246094 C 58.9375 39.261719 58.9375 39.277344 58.933594 39.292969 C 58.847656 39.835938 58.660156 40.300781 58.429688 40.734375 C 58.207031 41.164062 57.902344 41.570312 57.601562 41.90625 C 57.34375 42.203125 56.992188 42.582031 56.367188 42.863281 C 56.058594 43 55.671875 43.101562 55.28125 43.085938 C 54.898438 43.078125 54.523438 42.96875 54.257812 42.84375 C 53.695312 42.582031 53.292969 42.214844 52.949219 41.863281 C 52.609375 41.488281 52.351562 41.164062 52.042969 40.785156 C 51.472656 40.023438 50.976562 39.230469 50.601562 38.386719 C 50.578125 38.332031 50.601562 38.265625 50.65625 38.242188 C 50.699219 38.21875 50.75 38.230469 50.78125 38.261719 Z M 50.78125 38.261719 " fill-opacity="1" fill-rule="nonzero"/><path fill="#bffdfe" d="M 50.144531 43.542969 C 50.917969 44.300781 51.652344 45.082031 52.464844 45.734375 C 52.859375 46.070312 53.273438 46.375 53.695312 46.640625 C 54.140625 46.949219 54.472656 47.0625 54.796875 47.085938 C 55.414062 47.121094 55.882812 46.429688 56.632812 45.875 C 57 45.578125 57.382812 45.242188 57.816406 44.917969 C 58.242188 44.589844 58.699219 44.246094 59.269531 43.992188 C 59.328125 43.964844 59.402344 43.992188 59.429688 44.054688 C 59.441406 44.074219 59.441406 44.09375 59.441406 44.113281 L 59.441406 44.117188 C 59.378906 44.726562 59.246094 45.277344 59.039062 45.8125 C 58.835938 46.351562 58.566406 46.867188 58.203125 47.351562 C 57.835938 47.835938 57.347656 48.273438 56.707031 48.5625 C 56.078125 48.859375 55.238281 48.980469 54.5 48.789062 C 53.773438 48.609375 53.167969 48.132812 52.800781 47.757812 C 52.394531 47.351562 52.023438 46.921875 51.683594 46.476562 C 51.03125 45.566406 50.472656 44.632812 49.976562 43.667969 C 49.949219 43.617188 49.96875 43.550781 50.019531 43.523438 C 50.0625 43.5 50.113281 43.511719 50.144531 43.542969 Z M 50.144531 43.542969 " fill-opacity="1" fill-rule="nonzero"/><path fill="#bffdfe" d="M 60.175781 76.390625 C 59.667969 75.960938 59.183594 75.519531 58.667969 75.179688 C 58.171875 74.835938 57.628906 74.554688 57.222656 74.539062 C 57.015625 74.519531 56.871094 74.605469 56.773438 74.714844 C 56.675781 74.796875 56.5625 74.890625 56.367188 74.953125 C 56.167969 75.03125 55.9375 75.152344 55.644531 75.292969 C 55.359375 75.433594 55.035156 75.609375 54.605469 75.734375 C 54.527344 75.757812 54.445312 75.714844 54.421875 75.632812 C 54.421875 75.632812 54.417969 75.628906 54.417969 75.625 C 54.316406 75.191406 54.320312 74.804688 54.40625 74.417969 C 54.488281 74.027344 54.671875 73.640625 54.976562 73.304688 C 55.285156 72.972656 55.722656 72.683594 56.265625 72.636719 C 56.527344 72.59375 56.792969 72.636719 57.042969 72.664062 C 57.28125 72.730469 57.527344 72.78125 57.726562 72.882812 C 58.570312 73.25 59.046875 73.851562 59.445312 74.429688 C 59.832031 75.023438 60.121094 75.636719 60.355469 76.269531 C 60.375 76.324219 60.34375 76.390625 60.289062 76.410156 C 60.246094 76.425781 60.203125 76.417969 60.175781 76.390625 Z M 60.175781 76.390625 " fill-opacity="1" fill-rule="nonzero"/><path fill="#bffdfe" d="M 61.332031 72.894531 C 60.683594 72.257812 60.035156 71.648438 59.316406 71.144531 C 58.59375 70.640625 57.84375 70.039062 57.273438 69.941406 C 56.964844 69.898438 56.945312 70.003906 56.78125 70.164062 C 56.617188 70.328125 56.339844 70.605469 55.910156 70.894531 C 55.523438 71.136719 55.15625 71.332031 54.730469 71.523438 C 54.3125 71.71875 53.867188 71.898438 53.335938 72.011719 C 53.265625 72.027344 53.195312 71.980469 53.179688 71.910156 C 53.175781 71.894531 53.175781 71.878906 53.179688 71.863281 C 53.265625 71.320312 53.449219 70.855469 53.683594 70.425781 C 53.90625 69.992188 54.210938 69.585938 54.511719 69.25 C 54.765625 68.953125 55.121094 68.574219 55.746094 68.292969 C 56.054688 68.15625 56.441406 68.058594 56.832031 68.070312 C 57.214844 68.078125 57.585938 68.1875 57.851562 68.3125 C 58.417969 68.574219 58.820312 68.941406 59.164062 69.292969 C 59.503906 69.667969 59.757812 69.992188 60.070312 70.371094 C 60.636719 71.132812 61.136719 71.925781 61.511719 72.769531 C 61.535156 72.828125 61.511719 72.890625 61.457031 72.914062 C 61.410156 72.933594 61.363281 72.925781 61.332031 72.894531 Z M 61.332031 72.894531 " fill-opacity="1" fill-rule="nonzero"/><path fill="#bffdfe" d="M 61.964844 67.613281 C 61.191406 66.855469 60.460938 66.074219 59.648438 65.421875 C 59.25 65.085938 58.839844 64.78125 58.417969 64.515625 C 57.972656 64.207031 57.640625 64.089844 57.316406 64.070312 C 56.695312 64.035156 56.230469 64.726562 55.480469 65.28125 C 55.113281 65.578125 54.730469 65.914062 54.296875 66.238281 C 53.871094 66.566406 53.414062 66.910156 52.84375 67.164062 C 52.78125 67.191406 52.710938 67.164062 52.679688 67.101562 C 52.671875 67.082031 52.667969 67.0625 52.671875 67.039062 L 52.671875 67.035156 C 52.734375 66.425781 52.867188 65.878906 53.074219 65.339844 C 53.277344 64.804688 53.542969 64.285156 53.910156 63.800781 C 54.277344 63.320312 54.765625 62.882812 55.40625 62.589844 C 56.03125 62.296875 56.875 62.171875 57.613281 62.367188 C 58.339844 62.546875 58.941406 63.019531 59.3125 63.394531 C 59.71875 63.804688 60.089844 64.234375 60.425781 64.679688 C 61.082031 65.585938 61.640625 66.519531 62.136719 67.484375 C 62.164062 67.539062 62.144531 67.605469 62.089844 67.632812 C 62.050781 67.65625 61.996094 67.644531 61.964844 67.613281 Z M 61.964844 67.613281 " fill-opacity="1" fill-rule="nonzero"/><g clip-path="url(#e203e444c4)"><path fill="#bffdfe" d="M 30.183594 63.6875 L 30.183594 71.683594 L 1.671875 59.367188 L 1.671875 52.527344 L 30.183594 40.210938 L 30.183594 48.261719 L 10.316406 55.890625 Z M 30.183594 63.6875 " fill-opacity="1" fill-rule="nonzero"/></g><g clip-path="url(#ca06705e0c)"><path fill="#1d7e80" d="M 30.171875 39.953125 C 30.152344 39.953125 30.136719 39.957031 30.121094 39.960938 C 30.09375 39.96875 30.0625 39.976562 30.035156 39.988281 C 30.003906 40.003906 29.972656 40.015625 29.9375 40.03125 C 29.871094 40.054688 29.808594 40.082031 29.742188 40.109375 C 29.675781 40.136719 29.609375 40.160156 29.542969 40.183594 C 29.414062 40.230469 29.285156 40.28125 29.160156 40.328125 C 28.753906 40.476562 28.351562 40.628906 27.949219 40.777344 C 27.8125 40.828125 27.675781 40.878906 27.535156 40.933594 C 27.46875 40.957031 27.402344 40.984375 27.335938 41.007812 C 27.144531 41.074219 26.953125 41.140625 26.761719 41.203125 C 26.386719 41.335938 26.015625 41.464844 25.640625 41.59375 C 25.402344 41.675781 25.160156 41.757812 24.921875 41.839844 C 24.769531 41.894531 24.617188 41.949219 24.464844 42.003906 C 24.164062 42.109375 23.863281 42.21875 23.5625 42.324219 C 23.328125 42.40625 23.09375 42.492188 22.859375 42.574219 C 22.777344 42.605469 22.699219 42.632812 22.617188 42.660156 C 22.578125 42.675781 22.539062 42.6875 22.5 42.703125 C 22.382812 42.746094 22.265625 42.796875 22.148438 42.839844 C 21.921875 42.929688 21.699219 43.019531 21.472656 43.109375 L 20.566406 43.464844 C 20.421875 43.523438 20.277344 43.578125 20.128906 43.636719 C 20.011719 43.6875 19.898438 43.734375 19.78125 43.785156 C 19.558594 43.878906 19.335938 43.976562 19.109375 44.070312 C 18.8125 44.195312 18.515625 44.320312 18.21875 44.449219 C 18.074219 44.507812 17.925781 44.570312 17.785156 44.632812 C 17.683594 44.675781 17.582031 44.722656 17.480469 44.765625 C 17.28125 44.855469 17.082031 44.945312 16.882812 45.035156 C 16.566406 45.175781 16.246094 45.320312 15.929688 45.460938 C 15.824219 45.507812 15.71875 45.558594 15.609375 45.605469 C 15.554688 45.628906 15.5 45.652344 15.445312 45.679688 C 15.316406 45.738281 15.191406 45.800781 15.0625 45.863281 C 14.808594 45.988281 14.554688 46.113281 14.296875 46.238281 C 14.042969 46.359375 13.789062 46.484375 13.535156 46.609375 C 13.40625 46.671875 13.277344 46.730469 13.152344 46.792969 C 13.066406 46.835938 12.980469 46.882812 12.894531 46.929688 C 12.734375 47.011719 12.574219 47.097656 12.410156 47.183594 C 11.917969 47.441406 11.421875 47.699219 10.929688 47.957031 C 10.734375 48.058594 10.542969 48.160156 10.351562 48.261719 C 9.996094 48.449219 9.644531 48.636719 9.289062 48.824219 C 9.136719 48.90625 8.984375 48.988281 8.832031 49.066406 C 8.761719 49.105469 8.6875 49.144531 8.617188 49.179688 C 8.496094 49.242188 8.371094 49.300781 8.25 49.363281 C 8.011719 49.476562 7.777344 49.59375 7.539062 49.707031 C 7.265625 49.84375 6.996094 49.976562 6.722656 50.109375 C 6.589844 50.175781 6.457031 50.238281 6.328125 50.304688 C 6.285156 50.324219 6.242188 50.339844 6.203125 50.359375 C 6.125 50.394531 6.046875 50.429688 5.964844 50.464844 C 5.734375 50.570312 5.503906 50.671875 5.277344 50.777344 C 4.988281 50.90625 4.703125 51.035156 4.417969 51.164062 C 4.273438 51.226562 4.132812 51.292969 3.988281 51.355469 C 3.785156 51.445312 3.578125 51.527344 3.375 51.617188 C 2.964844 51.789062 2.554688 51.964844 2.144531 52.136719 L 1.714844 52.320312 C 1.691406 52.332031 1.667969 52.339844 1.644531 52.351562 C 1.609375 52.363281 1.582031 52.371094 1.550781 52.402344 C 1.53125 52.421875 1.519531 52.441406 1.507812 52.46875 C 1.492188 52.511719 1.492188 52.5625 1.492188 52.609375 C 1.492188 52.617188 1.492188 52.625 1.492188 52.636719 C 1.488281 52.652344 1.488281 52.671875 1.488281 52.6875 C 1.484375 52.804688 1.480469 52.917969 1.476562 53.035156 C 1.460938 53.445312 1.441406 53.855469 1.425781 54.265625 C 1.421875 54.433594 1.414062 54.601562 1.40625 54.769531 C 1.402344 54.859375 1.402344 54.949219 1.394531 55.039062 C 1.386719 55.164062 1.375 55.289062 1.367188 55.414062 C 1.347656 55.644531 1.328125 55.875 1.3125 56.105469 C 1.265625 56.710938 1.21875 57.316406 1.164062 57.921875 C 1.132812 58.289062 1.105469 58.652344 1.074219 59.019531 C 1.066406 59.089844 1.058594 59.160156 1.054688 59.230469 C 1.050781 59.257812 1.050781 59.285156 1.046875 59.3125 C 1.046875 59.324219 1.042969 59.339844 1.042969 59.351562 C 1.042969 59.382812 1.046875 59.410156 1.050781 59.441406 C 1.050781 59.453125 1.054688 59.464844 1.054688 59.472656 C 1.066406 59.527344 1.082031 59.578125 1.105469 59.628906 C 1.121094 59.660156 1.136719 59.691406 1.15625 59.722656 C 1.195312 59.773438 1.238281 59.820312 1.285156 59.859375 C 1.320312 59.886719 1.359375 59.910156 1.398438 59.929688 C 1.410156 59.933594 1.417969 59.9375 1.429688 59.945312 C 1.503906 59.984375 1.578125 60.023438 1.648438 60.0625 C 1.746094 60.113281 1.847656 60.167969 1.945312 60.21875 C 2 60.25 2.050781 60.277344 2.105469 60.304688 C 2.277344 60.394531 2.449219 60.476562 2.621094 60.5625 C 3.019531 60.757812 3.414062 60.953125 3.808594 61.144531 C 3.9375 61.210938 4.070312 61.277344 4.203125 61.339844 C 4.265625 61.371094 4.328125 61.40625 4.394531 61.433594 C 4.460938 61.46875 4.53125 61.496094 4.601562 61.527344 C 4.738281 61.589844 4.875 61.652344 5.015625 61.714844 C 5.429688 61.902344 5.84375 62.089844 6.261719 62.273438 C 6.414062 62.34375 6.5625 62.414062 6.714844 62.480469 C 6.832031 62.53125 6.949219 62.578125 7.066406 62.628906 C 7.292969 62.722656 7.523438 62.820312 7.75 62.917969 C 8.042969 63.042969 8.335938 63.164062 8.628906 63.289062 C 8.726562 63.332031 8.824219 63.371094 8.921875 63.414062 C 8.976562 63.433594 9.027344 63.457031 9.078125 63.476562 C 9.199219 63.527344 9.324219 63.574219 9.445312 63.621094 C 9.679688 63.714844 9.914062 63.808594 10.152344 63.898438 C 10.441406 64.015625 10.734375 64.128906 11.027344 64.242188 C 11.121094 64.28125 11.214844 64.316406 11.308594 64.355469 C 11.355469 64.371094 11.402344 64.390625 11.449219 64.410156 C 11.558594 64.449219 11.671875 64.488281 11.78125 64.527344 C 11.992188 64.601562 12.199219 64.675781 12.410156 64.75 C 12.734375 64.863281 13.0625 64.976562 13.386719 65.09375 C 13.546875 65.148438 13.710938 65.207031 13.875 65.265625 C 14.433594 65.457031 14.996094 65.648438 15.558594 65.839844 C 15.722656 65.894531 15.886719 65.949219 16.046875 66.003906 C 16.128906 66.035156 16.210938 66.058594 16.292969 66.089844 C 16.4375 66.140625 16.578125 66.191406 16.722656 66.246094 C 17.007812 66.351562 17.292969 66.453125 17.578125 66.558594 C 17.824219 66.648438 18.070312 66.738281 18.320312 66.828125 C 18.441406 66.875 18.566406 66.917969 18.691406 66.964844 C 18.738281 66.984375 18.785156 67.003906 18.832031 67.023438 C 18.921875 67.058594 19.007812 67.09375 19.097656 67.128906 C 19.371094 67.238281 19.640625 67.347656 19.914062 67.460938 C 20.15625 67.558594 20.402344 67.65625 20.644531 67.753906 C 20.738281 67.792969 20.832031 67.832031 20.925781 67.867188 C 20.972656 67.886719 21.019531 67.90625 21.066406 67.925781 C 21.125 67.949219 21.179688 67.972656 21.234375 67.996094 C 21.714844 68.207031 22.199219 68.417969 22.679688 68.628906 L 23.164062 68.84375 C 23.246094 68.875 23.324219 68.910156 23.402344 68.945312 C 23.457031 68.972656 23.511719 69 23.566406 69.027344 C 23.675781 69.078125 23.785156 69.132812 23.894531 69.1875 C 24.210938 69.34375 24.527344 69.5 24.847656 69.652344 C 25.546875 69.996094 26.246094 70.339844 26.945312 70.683594 C 27.316406 70.867188 27.691406 71.050781 28.0625 71.230469 C 28.597656 71.492188 29.128906 71.75 29.660156 72.007812 C 29.730469 72.042969 29.796875 72.074219 29.867188 72.109375 C 29.929688 72.140625 29.992188 72.171875 30.0625 72.1875 C 30.082031 72.191406 30.097656 72.195312 30.117188 72.199219 C 30.136719 72.199219 30.160156 72.203125 30.183594 72.203125 C 30.207031 72.203125 30.234375 72.199219 30.257812 72.195312 C 30.320312 72.183594 30.378906 72.164062 30.433594 72.136719 C 30.464844 72.117188 30.492188 72.101562 30.515625 72.078125 C 30.539062 72.058594 30.5625 72.035156 30.582031 72.011719 C 30.601562 71.988281 30.617188 71.964844 30.632812 71.941406 C 30.644531 71.921875 30.65625 71.898438 30.664062 71.875 C 30.671875 71.859375 30.679688 71.839844 30.683594 71.820312 C 30.6875 71.800781 30.691406 71.785156 30.695312 71.769531 C 30.703125 71.730469 30.703125 71.691406 30.707031 71.652344 C 30.707031 71.601562 30.710938 71.546875 30.710938 71.496094 C 30.734375 71.007812 30.753906 70.519531 30.773438 70.027344 C 30.863281 67.914062 30.773438 70.027344 31.042969 63.6875 C 31.042969 63.679688 31.042969 63.675781 31.042969 63.667969 C 31.042969 63.664062 31.042969 63.660156 31.042969 63.660156 C 31.035156 63.429688 30.949219 63.234375 30.785156 63.074219 C 30.78125 63.074219 30.78125 63.070312 30.777344 63.070312 C 30.742188 63.03125 30.699219 63 30.652344 62.96875 C 30.648438 62.96875 30.648438 62.964844 30.644531 62.964844 C 30.574219 62.917969 30.5 62.886719 30.417969 62.863281 C 25.683594 61.25 27.125 61.738281 25.476562 61.179688 C 24.734375 60.925781 23.996094 60.675781 23.253906 60.421875 C 22.859375 60.289062 22.460938 60.15625 22.066406 60.023438 C 21.28125 59.761719 20.492188 59.496094 19.707031 59.234375 C 19.417969 59.136719 19.128906 59.039062 18.839844 58.945312 C 18.699219 58.894531 18.554688 58.847656 18.410156 58.800781 C 18.351562 58.78125 18.296875 58.757812 18.238281 58.738281 C 18.136719 58.699219 18.035156 58.664062 17.933594 58.625 C 17.617188 58.511719 17.304688 58.398438 16.988281 58.28125 C 16.769531 58.203125 16.550781 58.121094 16.328125 58.042969 C 16.222656 58.003906 16.113281 57.964844 16.003906 57.925781 C 15.886719 57.882812 15.773438 57.832031 15.65625 57.785156 C 15.421875 57.695312 15.191406 57.601562 14.960938 57.511719 C 14.664062 57.394531 14.371094 57.277344 14.078125 57.160156 C 13.925781 57.097656 13.773438 57.042969 13.621094 56.980469 C 13.507812 56.929688 13.394531 56.882812 13.28125 56.832031 C 13.054688 56.738281 12.828125 56.640625 12.601562 56.546875 C 12.308594 56.421875 12.019531 56.300781 11.730469 56.179688 C 11.550781 56.101562 11.367188 56.023438 11.1875 55.941406 C 11.382812 55.878906 11.582031 55.816406 11.777344 55.753906 C 11.84375 55.734375 11.910156 55.710938 11.976562 55.691406 C 12.074219 55.660156 12.175781 55.632812 12.277344 55.601562 C 12.457031 55.546875 12.636719 55.496094 12.816406 55.441406 C 13.347656 55.285156 13.882812 55.125 14.414062 54.96875 C 14.5625 54.925781 14.707031 54.878906 14.851562 54.832031 C 15.128906 54.746094 15.410156 54.65625 15.6875 54.570312 L 16.484375 54.320312 C 16.613281 54.28125 16.75 54.242188 16.878906 54.199219 C 17 54.160156 17.117188 54.113281 17.234375 54.074219 C 17.457031 53.996094 17.675781 53.917969 17.898438 53.839844 C 18.214844 53.726562 18.527344 53.617188 18.839844 53.507812 C 18.992188 53.457031 19.144531 53.402344 19.292969 53.347656 C 19.449219 53.292969 19.605469 53.230469 19.757812 53.171875 C 20.070312 53.054688 20.378906 52.9375 20.691406 52.816406 C 20.910156 52.734375 21.132812 52.652344 21.351562 52.566406 C 21.460938 52.527344 21.574219 52.484375 21.683594 52.441406 C 21.832031 52.382812 21.976562 52.320312 22.125 52.261719 C 22.421875 52.140625 22.714844 52.019531 23.011719 51.898438 C 23.242188 51.804688 23.472656 51.710938 23.703125 51.617188 C 23.78125 51.585938 23.855469 51.554688 23.933594 51.523438 C 23.972656 51.507812 24.011719 51.492188 24.050781 51.476562 C 24.175781 51.421875 24.300781 51.359375 24.429688 51.304688 C 24.675781 51.195312 24.921875 51.082031 25.167969 50.972656 C 25.441406 50.847656 25.714844 50.726562 25.984375 50.605469 C 26.074219 50.566406 26.164062 50.523438 26.25 50.484375 C 26.308594 50.460938 26.367188 50.433594 26.421875 50.40625 L 27.921875 49.679688 C 28.171875 49.558594 28.421875 49.4375 28.675781 49.316406 C 28.773438 49.269531 28.875 49.226562 28.976562 49.179688 C 29.160156 49.09375 29.34375 49.011719 29.523438 48.925781 C 29.605469 48.886719 29.6875 48.851562 29.769531 48.8125 C 29.839844 48.78125 29.910156 48.75 29.980469 48.714844 C 30.0625 48.679688 30.144531 48.640625 30.226562 48.601562 C 30.277344 48.578125 30.339844 48.554688 30.386719 48.519531 C 30.457031 48.460938 30.496094 48.386719 30.507812 48.292969 C 30.511719 48.257812 30.511719 48.21875 30.507812 48.183594 C 30.503906 48.132812 30.5 48.078125 30.496094 48.027344 C 30.484375 47.859375 30.472656 47.691406 30.460938 47.523438 C 30.460938 47.464844 30.457031 47.40625 30.457031 47.351562 C 30.453125 47.265625 30.453125 47.183594 30.449219 47.097656 C 30.441406 46.847656 30.4375 46.59375 30.429688 46.34375 C 30.421875 46.027344 30.414062 45.714844 30.40625 45.398438 C 30.402344 45.246094 30.394531 45.09375 30.390625 44.941406 C 30.390625 44.886719 30.390625 44.828125 30.390625 44.769531 C 30.390625 44.660156 30.390625 44.550781 30.390625 44.441406 C 30.390625 44.113281 30.390625 43.789062 30.390625 43.464844 C 30.390625 43.222656 30.390625 42.984375 30.390625 42.742188 C 30.390625 42.625 30.390625 42.511719 30.390625 42.394531 C 30.390625 42.285156 30.394531 42.175781 30.398438 42.066406 C 30.410156 41.566406 30.421875 41.070312 30.433594 40.570312 C 30.433594 40.515625 30.4375 40.457031 30.4375 40.398438 C 30.4375 40.355469 30.4375 40.3125 30.441406 40.273438 C 30.441406 40.21875 30.445312 40.171875 30.421875 40.117188 C 30.417969 40.105469 30.410156 40.09375 30.40625 40.085938 C 30.390625 40.058594 30.371094 40.035156 30.347656 40.015625 C 30.324219 39.996094 30.292969 39.976562 30.261719 39.96875 C 30.25 39.960938 30.234375 39.957031 30.21875 39.957031 C 30.203125 39.953125 30.1875 39.953125 30.171875 39.953125 Z M 29.933594 40.609375 C 29.933594 40.65625 29.933594 40.699219 29.933594 40.742188 C 29.945312 41.09375 29.953125 41.445312 29.960938 41.796875 C 29.960938 41.929688 29.964844 42.058594 29.96875 42.191406 C 29.96875 42.257812 29.972656 42.328125 29.972656 42.394531 C 29.972656 42.546875 29.972656 42.699219 29.972656 42.851562 C 29.972656 43.15625 29.972656 43.460938 29.972656 43.765625 C 29.972656 44.027344 29.972656 44.289062 29.972656 44.550781 C 29.972656 44.679688 29.972656 44.8125 29.972656 44.941406 C 29.96875 45.191406 29.957031 45.4375 29.953125 45.683594 C 29.9375 46.175781 29.925781 46.667969 29.914062 47.160156 C 29.910156 47.234375 29.910156 47.308594 29.90625 47.378906 C 29.90625 47.417969 29.90625 47.453125 29.902344 47.492188 C 29.894531 47.628906 29.886719 47.765625 29.875 47.898438 C 29.875 47.9375 29.871094 47.976562 29.867188 48.015625 C 29.855469 48.019531 29.839844 48.023438 29.824219 48.03125 C 29.679688 48.074219 29.535156 48.121094 29.386719 48.164062 C 29.050781 48.269531 28.710938 48.378906 28.375 48.480469 C 28.265625 48.511719 28.160156 48.542969 28.050781 48.574219 C 27.570312 48.714844 27.089844 48.855469 26.609375 48.992188 C 26.375 49.0625 26.144531 49.128906 25.910156 49.195312 C 25.835938 49.21875 25.765625 49.242188 25.691406 49.265625 C 25.558594 49.308594 25.425781 49.351562 25.296875 49.394531 C 24.890625 49.523438 24.488281 49.652344 24.085938 49.78125 C 23.949219 49.828125 23.808594 49.871094 23.667969 49.917969 C 23.605469 49.9375 23.539062 49.957031 23.472656 49.980469 C 23.425781 49.996094 23.378906 50.011719 23.335938 50.027344 C 23.25 50.058594 23.164062 50.089844 23.082031 50.121094 C 22.824219 50.210938 22.570312 50.304688 22.316406 50.394531 C 22.035156 50.496094 21.757812 50.597656 21.476562 50.699219 C 21.339844 50.746094 21.203125 50.792969 21.066406 50.84375 C 20.949219 50.886719 20.832031 50.933594 20.714844 50.980469 C 20.484375 51.070312 20.25 51.160156 20.019531 51.25 C 19.722656 51.367188 19.425781 51.480469 19.128906 51.597656 C 18.980469 51.65625 18.832031 51.710938 18.683594 51.769531 C 18.527344 51.832031 18.375 51.898438 18.222656 51.964844 C 17.921875 52.089844 17.621094 52.214844 17.320312 52.339844 C 17.097656 52.433594 16.871094 52.527344 16.648438 52.621094 C 16.539062 52.664062 16.429688 52.707031 16.324219 52.753906 C 16.203125 52.808594 16.082031 52.867188 15.964844 52.921875 C 15.734375 53.023438 15.507812 53.128906 15.28125 53.234375 C 14.996094 53.363281 14.714844 53.492188 14.429688 53.625 C 14.285156 53.691406 14.140625 53.753906 13.996094 53.824219 C 13.75 53.9375 13.503906 54.058594 13.261719 54.171875 C 12.910156 54.339844 12.558594 54.507812 12.207031 54.675781 C 12.089844 54.734375 11.96875 54.789062 11.851562 54.847656 C 11.792969 54.875 11.738281 54.902344 11.679688 54.925781 C 11.582031 54.972656 11.480469 55.019531 11.378906 55.0625 L 10.808594 55.320312 C 10.75 55.347656 10.695312 55.371094 10.636719 55.398438 C 10.585938 55.421875 10.535156 55.445312 10.484375 55.464844 C 10.449219 55.484375 10.410156 55.5 10.371094 55.519531 C 10.320312 55.542969 10.269531 55.5625 10.21875 55.585938 C 10.207031 55.59375 10.191406 55.597656 10.179688 55.605469 C 10.171875 55.609375 10.164062 55.609375 10.160156 55.617188 C 10.121094 55.648438 10.042969 55.671875 10.046875 55.722656 C 10.058594 55.882812 10.148438 56.03125 10.199219 56.183594 C 10.199219 56.183594 10.214844 56.1875 10.214844 56.1875 C 10.214844 56.191406 10.21875 56.191406 10.21875 56.191406 C 10.234375 56.195312 10.25 56.203125 10.265625 56.207031 C 10.332031 56.226562 10.398438 56.25 10.464844 56.269531 C 10.601562 56.316406 10.738281 56.359375 10.875 56.40625 C 10.945312 56.429688 11.019531 56.449219 11.089844 56.476562 C 11.15625 56.5 11.222656 56.523438 11.289062 56.546875 C 11.777344 56.726562 12.265625 56.902344 12.753906 57.078125 C 12.996094 57.167969 13.238281 57.25 13.480469 57.339844 C 13.539062 57.363281 13.597656 57.386719 13.660156 57.410156 C 13.765625 57.453125 13.875 57.496094 13.980469 57.535156 C 14.300781 57.660156 14.621094 57.78125 14.9375 57.90625 C 15.144531 57.984375 15.347656 58.066406 15.554688 58.144531 C 15.660156 58.1875 15.765625 58.226562 15.871094 58.269531 C 16.019531 58.328125 16.164062 58.394531 16.3125 58.457031 C 16.609375 58.582031 16.90625 58.707031 17.203125 58.832031 C 17.429688 58.925781 17.660156 59.023438 17.890625 59.121094 C 18.003906 59.167969 18.117188 59.214844 18.226562 59.265625 C 18.378906 59.332031 18.527344 59.398438 18.679688 59.46875 C 18.972656 59.601562 19.269531 59.734375 19.566406 59.871094 C 20.464844 60.273438 21.359375 60.679688 22.253906 61.085938 C 23.300781 61.558594 24.347656 62.023438 25.394531 62.492188 C 26.710938 63.078125 26.515625 62.992188 29.34375 64.253906 C 29.492188 67.773438 29.480469 67.425781 29.546875 69.011719 C 29.570312 69.605469 29.597656 70.199219 29.621094 70.792969 C 29.625 70.835938 29.625 70.875 29.628906 70.917969 C 29.21875 70.761719 28.8125 70.605469 28.402344 70.449219 C 27.945312 70.277344 27.484375 70.105469 27.023438 69.933594 C 26.160156 69.609375 25.300781 69.285156 24.4375 68.960938 C 24.238281 68.886719 24.039062 68.808594 23.839844 68.734375 C 23.773438 68.710938 23.707031 68.6875 23.640625 68.660156 C 23.609375 68.648438 23.574219 68.636719 23.542969 68.625 C 23.5 68.605469 23.457031 68.585938 23.417969 68.570312 C 23.34375 68.539062 23.269531 68.507812 23.191406 68.476562 C 22.96875 68.378906 22.746094 68.285156 22.523438 68.1875 C 22.226562 68.0625 21.929688 67.933594 21.632812 67.808594 C 21.488281 67.746094 21.34375 67.6875 21.199219 67.625 C 21.085938 67.574219 20.976562 67.523438 20.867188 67.472656 C 20.660156 67.375 20.453125 67.28125 20.25 67.183594 C 19.941406 67.042969 19.632812 66.902344 19.324219 66.757812 C 19.222656 66.714844 19.125 66.667969 19.023438 66.621094 C 18.972656 66.597656 18.921875 66.574219 18.871094 66.550781 C 18.753906 66.492188 18.636719 66.429688 18.519531 66.371094 C 18.28125 66.253906 18.046875 66.136719 17.8125 66.019531 C 17.539062 65.882812 17.269531 65.746094 16.996094 65.609375 C 16.863281 65.542969 16.726562 65.476562 16.589844 65.40625 C 16.511719 65.367188 16.4375 65.324219 16.363281 65.285156 C 16.210938 65.203125 16.058594 65.121094 15.90625 65.042969 C 15.382812 64.765625 14.859375 64.484375 14.332031 64.207031 C 14.183594 64.128906 14.035156 64.054688 13.886719 63.976562 C 13.59375 63.828125 13.300781 63.675781 13.007812 63.523438 C 12.792969 63.414062 12.578125 63.300781 12.359375 63.191406 C 12.257812 63.136719 12.15625 63.082031 12.050781 63.03125 C 11.941406 62.976562 11.832031 62.925781 11.722656 62.875 C 11.511719 62.777344 11.300781 62.675781 11.089844 62.578125 C 10.789062 62.433594 10.488281 62.292969 10.183594 62.148438 C 10.039062 62.078125 9.894531 62.007812 9.746094 61.941406 C 9.617188 61.882812 9.488281 61.828125 9.355469 61.769531 C 9.113281 61.660156 8.867188 61.554688 8.621094 61.445312 C 8.347656 61.324219 8.078125 61.203125 7.804688 61.082031 C 7.667969 61.023438 7.535156 60.960938 7.402344 60.90625 C 7.210938 60.824219 7.019531 60.746094 6.828125 60.667969 C 6.449219 60.511719 6.070312 60.355469 5.691406 60.195312 C 5.546875 60.136719 5.402344 60.078125 5.257812 60.015625 C 5.1875 59.988281 5.117188 59.957031 5.046875 59.929688 C 4.976562 59.902344 4.90625 59.875 4.835938 59.851562 C 4.695312 59.800781 4.558594 59.746094 4.421875 59.695312 C 4.007812 59.542969 3.597656 59.386719 3.183594 59.234375 C 3.007812 59.167969 2.832031 59.101562 2.65625 59.039062 C 2.617188 59.023438 2.582031 59.011719 2.542969 59 C 2.472656 58.976562 2.40625 58.953125 2.339844 58.929688 C 2.3125 58.921875 2.285156 58.914062 2.261719 58.90625 C 2.257812 58.851562 2.25 58.800781 2.246094 58.75 C 2.214844 58.351562 2.175781 57.949219 2.144531 57.550781 C 2.101562 56.988281 2.054688 56.425781 2.011719 55.867188 C 1.996094 55.679688 1.984375 55.492188 1.96875 55.304688 C 1.960938 55.214844 1.953125 55.128906 1.945312 55.039062 C 1.941406 54.941406 1.9375 54.84375 1.933594 54.746094 C 1.929688 54.566406 1.921875 54.390625 1.914062 54.210938 C 1.898438 53.808594 1.882812 53.410156 1.867188 53.007812 C 1.863281 52.894531 1.859375 52.777344 1.855469 52.660156 C 1.851562 52.652344 1.851562 52.648438 1.851562 52.640625 C 1.894531 52.621094 1.933594 52.601562 1.976562 52.585938 C 2.125 52.519531 2.273438 52.453125 2.421875 52.386719 C 2.867188 52.191406 3.308594 51.996094 3.753906 51.800781 C 3.875 51.75 3.992188 51.695312 4.113281 51.644531 C 4.257812 51.582031 4.402344 51.523438 4.546875 51.464844 C 4.824219 51.347656 5.101562 51.234375 5.375 51.121094 C 5.625 51.019531 5.871094 50.914062 6.117188 50.8125 C 6.199219 50.78125 6.277344 50.746094 6.355469 50.714844 C 6.398438 50.699219 6.441406 50.679688 6.484375 50.664062 C 6.632812 50.605469 6.785156 50.546875 6.9375 50.492188 C 7.230469 50.382812 7.523438 50.269531 7.820312 50.160156 C 8.054688 50.070312 8.292969 49.980469 8.527344 49.890625 C 8.644531 49.847656 8.753906 49.804688 8.871094 49.761719 C 8.992188 49.71875 9.121094 49.679688 9.246094 49.636719 C 9.488281 49.550781 9.734375 49.46875 9.980469 49.386719 C 10.414062 49.234375 10.851562 49.085938 11.289062 48.9375 C 11.707031 48.792969 12.121094 48.648438 12.539062 48.503906 C 12.800781 48.414062 13.066406 48.320312 13.328125 48.230469 C 13.460938 48.1875 13.589844 48.144531 13.71875 48.097656 C 13.851562 48.046875 13.984375 47.996094 14.117188 47.945312 C 14.378906 47.84375 14.644531 47.746094 14.910156 47.644531 C 15.175781 47.542969 15.441406 47.441406 15.703125 47.34375 C 15.835938 47.292969 15.96875 47.242188 16.101562 47.191406 C 16.148438 47.171875 16.195312 47.152344 16.242188 47.132812 C 16.335938 47.09375 16.429688 47.054688 16.523438 47.015625 C 16.800781 46.898438 17.082031 46.78125 17.363281 46.667969 C 17.609375 46.5625 17.855469 46.460938 18.105469 46.355469 C 18.226562 46.308594 18.347656 46.257812 18.46875 46.207031 C 18.621094 46.140625 18.773438 46.070312 18.925781 46.003906 L 19.828125 45.605469 C 20.046875 45.511719 20.261719 45.414062 20.480469 45.320312 C 20.585938 45.273438 20.695312 45.226562 20.800781 45.179688 C 20.882812 45.140625 20.964844 45.101562 21.046875 45.0625 C 21.210938 44.984375 21.375 44.90625 21.542969 44.828125 L 22.996094 44.144531 C 23.03125 44.125 23.070312 44.109375 23.105469 44.09375 C 23.152344 44.070312 23.195312 44.046875 23.242188 44.023438 C 23.316406 43.984375 23.394531 43.945312 23.472656 43.90625 C 23.683594 43.796875 23.894531 43.6875 24.105469 43.578125 C 24.390625 43.433594 24.675781 43.289062 24.957031 43.144531 C 25.101562 43.070312 25.246094 42.996094 25.390625 42.921875 C 25.691406 42.765625 25.992188 42.605469 26.292969 42.449219 C 26.585938 42.296875 26.878906 42.140625 27.167969 41.988281 C 27.332031 41.902344 27.492188 41.816406 27.652344 41.734375 C 27.710938 41.703125 27.769531 41.675781 27.832031 41.648438 C 28.375 41.378906 28.917969 41.109375 29.464844 40.839844 C 29.570312 40.789062 29.671875 40.738281 29.777344 40.6875 C 29.828125 40.660156 29.878906 40.636719 29.933594 40.609375 Z M 2.289062 59.261719 C 2.292969 59.265625 2.292969 59.269531 2.292969 59.273438 C 2.296875 59.292969 2.296875 59.316406 2.296875 59.339844 C 2.296875 59.328125 2.296875 59.320312 2.296875 59.3125 C 2.292969 59.304688 2.292969 59.292969 2.292969 59.285156 C 2.292969 59.277344 2.292969 59.269531 2.289062 59.261719 Z M 2.289062 59.261719 " fill-opacity="1" fill-rule="nonzero"/></g><path fill="#bffdfe" d="M 82.308594 63.6875 L 82.308594 71.683594 L 110.820312 59.367188 L 110.820312 52.527344 L 82.308594 40.210938 L 82.308594 48.261719 L 102.175781 55.890625 Z M 82.308594 63.6875 " fill-opacity="1" fill-rule="nonzero"/><g clip-path="url(#5590bfa35f)"><path fill="#1d7e80" d="M 82.320312 39.953125 C 82.335938 39.953125 82.355469 39.957031 82.371094 39.960938 C 82.398438 39.96875 82.425781 39.976562 82.453125 39.988281 C 82.488281 40.003906 82.519531 40.015625 82.550781 40.03125 C 82.617188 40.054688 82.683594 40.082031 82.75 40.109375 C 82.816406 40.136719 82.882812 40.160156 82.949219 40.183594 C 83.078125 40.230469 83.203125 40.28125 83.332031 40.328125 C 83.734375 40.476562 84.140625 40.628906 84.542969 40.777344 C 84.679688 40.828125 84.816406 40.878906 84.953125 40.933594 C 85.019531 40.957031 85.085938 40.984375 85.152344 41.007812 C 85.34375 41.074219 85.539062 41.140625 85.730469 41.203125 C 86.101562 41.335938 86.476562 41.464844 86.851562 41.59375 C 87.089844 41.675781 87.332031 41.757812 87.570312 41.839844 C 87.722656 41.894531 87.875 41.949219 88.027344 42.003906 C 88.328125 42.109375 88.628906 42.21875 88.929688 42.324219 C 89.164062 42.40625 89.398438 42.492188 89.632812 42.574219 C 89.710938 42.605469 89.792969 42.632812 89.875 42.660156 C 89.914062 42.675781 89.949219 42.6875 89.988281 42.703125 C 90.105469 42.746094 90.222656 42.796875 90.34375 42.839844 C 90.566406 42.929688 90.792969 43.019531 91.019531 43.109375 L 91.921875 43.464844 C 92.070312 43.523438 92.214844 43.578125 92.359375 43.636719 C 92.476562 43.6875 92.59375 43.734375 92.710938 43.785156 C 92.933594 43.878906 93.15625 43.976562 93.378906 44.070312 C 93.679688 44.195312 93.976562 44.320312 94.273438 44.449219 C 94.417969 44.507812 94.5625 44.570312 94.707031 44.632812 C 94.808594 44.675781 94.910156 44.722656 95.011719 44.765625 C 95.210938 44.855469 95.410156 44.945312 95.605469 45.035156 C 95.925781 45.175781 96.242188 45.320312 96.5625 45.460938 C 96.667969 45.507812 96.773438 45.558594 96.878906 45.605469 C 96.933594 45.628906 96.992188 45.652344 97.046875 45.679688 C 97.175781 45.738281 97.300781 45.800781 97.429688 45.863281 C 97.683594 45.988281 97.9375 46.113281 98.191406 46.238281 C 98.449219 46.359375 98.703125 46.484375 98.957031 46.609375 C 99.085938 46.671875 99.210938 46.730469 99.339844 46.792969 C 99.425781 46.835938 99.507812 46.882812 99.59375 46.929688 C 99.757812 47.011719 99.917969 47.097656 100.082031 47.183594 C 100.574219 47.441406 101.066406 47.699219 101.5625 47.957031 C 101.753906 48.058594 101.949219 48.160156 102.140625 48.261719 C 102.496094 48.449219 102.847656 48.636719 103.203125 48.824219 C 103.355469 48.90625 103.507812 48.988281 103.660156 49.066406 C 103.730469 49.105469 103.800781 49.144531 103.875 49.179688 C 103.996094 49.242188 104.121094 49.300781 104.242188 49.363281 C 104.480469 49.476562 104.714844 49.59375 104.953125 49.707031 C 105.222656 49.84375 105.496094 49.976562 105.769531 50.109375 C 105.902344 50.175781 106.03125 50.238281 106.164062 50.304688 C 106.207031 50.324219 106.246094 50.339844 106.289062 50.359375 C 106.367188 50.394531 106.445312 50.429688 106.523438 50.464844 C 106.753906 50.570312 106.984375 50.671875 107.214844 50.777344 C 107.5 50.90625 107.789062 51.035156 108.074219 51.164062 C 108.214844 51.226562 108.359375 51.292969 108.5 51.355469 C 108.707031 51.445312 108.910156 51.527344 109.117188 51.617188 C 109.527344 51.789062 109.933594 51.964844 110.34375 52.136719 L 110.777344 52.320312 C 110.800781 52.332031 110.824219 52.339844 110.847656 52.351562 C 110.882812 52.363281 110.910156 52.371094 110.9375 52.402344 C 110.957031 52.421875 110.972656 52.441406 110.984375 52.46875 C 111 52.511719 110.996094 52.5625 111 52.609375 C 111 52.617188 111 52.625 111 52.636719 C 111 52.652344 111 52.671875 111.003906 52.6875 C 111.007812 52.804688 111.011719 52.917969 111.015625 53.035156 C 111.03125 53.445312 111.046875 53.855469 111.0625 54.265625 C 111.070312 54.433594 111.078125 54.601562 111.085938 54.769531 C 111.085938 54.859375 111.089844 54.949219 111.09375 55.039062 C 111.101562 55.164062 111.113281 55.289062 111.125 55.414062 C 111.144531 55.644531 111.160156 55.875 111.179688 56.105469 C 111.226562 56.710938 111.273438 57.316406 111.324219 57.921875 C 111.355469 58.289062 111.386719 58.652344 111.417969 59.019531 C 111.425781 59.089844 111.429688 59.160156 111.4375 59.230469 C 111.4375 59.257812 111.441406 59.285156 111.441406 59.3125 C 111.445312 59.324219 111.445312 59.339844 111.445312 59.351562 C 111.445312 59.382812 111.445312 59.410156 111.441406 59.441406 C 111.441406 59.453125 111.4375 59.464844 111.4375 59.472656 C 111.425781 59.527344 111.410156 59.578125 111.386719 59.628906 C 111.371094 59.660156 111.351562 59.691406 111.332031 59.722656 C 111.296875 59.773438 111.253906 59.820312 111.203125 59.859375 C 111.167969 59.886719 111.132812 59.910156 111.09375 59.929688 C 111.082031 59.933594 111.070312 59.9375 111.0625 59.945312 C 110.988281 59.984375 110.914062 60.023438 110.839844 60.0625 C 110.742188 60.113281 110.644531 60.167969 110.546875 60.21875 C 110.492188 60.25 110.441406 60.277344 110.386719 60.304688 C 110.214844 60.394531 110.039062 60.476562 109.867188 60.5625 C 109.472656 60.757812 109.078125 60.953125 108.683594 61.144531 C 108.550781 61.210938 108.421875 61.277344 108.289062 61.339844 C 108.226562 61.371094 108.160156 61.40625 108.097656 61.433594 C 108.03125 61.46875 107.960938 61.496094 107.890625 61.527344 C 107.753906 61.589844 107.613281 61.652344 107.476562 61.714844 C 107.0625 61.902344 106.644531 62.089844 106.230469 62.273438 C 106.078125 62.34375 105.925781 62.414062 105.773438 62.480469 C 105.660156 62.53125 105.542969 62.578125 105.425781 62.628906 C 105.195312 62.722656 104.96875 62.820312 104.742188 62.917969 C 104.449219 63.042969 104.152344 63.164062 103.859375 63.289062 C 103.761719 63.332031 103.664062 63.371094 103.566406 63.414062 C 103.515625 63.433594 103.464844 63.457031 103.414062 63.476562 C 103.292969 63.527344 103.167969 63.574219 103.046875 63.621094 C 102.808594 63.714844 102.574219 63.808594 102.339844 63.898438 C 102.046875 64.015625 101.757812 64.128906 101.464844 64.242188 C 101.371094 64.28125 101.277344 64.316406 101.179688 64.355469 C 101.132812 64.371094 101.085938 64.390625 101.039062 64.410156 C 100.929688 64.449219 100.820312 64.488281 100.710938 64.527344 C 100.5 64.601562 100.289062 64.675781 100.078125 64.75 C 99.753906 64.863281 99.429688 64.976562 99.105469 65.09375 C 98.941406 65.148438 98.78125 65.207031 98.617188 65.265625 C 98.054688 65.457031 97.496094 65.648438 96.933594 65.839844 C 96.769531 65.894531 96.605469 65.949219 96.441406 66.003906 C 96.359375 66.035156 96.277344 66.058594 96.199219 66.089844 C 96.054688 66.140625 95.914062 66.191406 95.769531 66.246094 C 95.484375 66.351562 95.199219 66.453125 94.914062 66.558594 C 94.667969 66.648438 94.417969 66.738281 94.171875 66.828125 C 94.046875 66.875 93.925781 66.917969 93.800781 66.964844 C 93.753906 66.984375 93.707031 67.003906 93.660156 67.023438 C 93.570312 67.058594 93.480469 67.09375 93.394531 67.128906 C 93.121094 67.238281 92.847656 67.347656 92.578125 67.460938 C 92.332031 67.558594 92.089844 67.65625 91.84375 67.753906 C 91.75 67.792969 91.65625 67.832031 91.5625 67.867188 C 91.515625 67.886719 91.46875 67.90625 91.421875 67.925781 C 91.367188 67.949219 91.3125 67.972656 91.257812 67.996094 C 90.773438 68.207031 90.292969 68.417969 89.8125 68.628906 L 89.324219 68.84375 C 89.246094 68.875 89.167969 68.910156 89.089844 68.945312 C 89.035156 68.972656 88.980469 69 88.925781 69.027344 C 88.816406 69.078125 88.707031 69.132812 88.597656 69.1875 C 88.28125 69.34375 87.960938 69.5 87.644531 69.652344 C 86.945312 69.996094 86.246094 70.339844 85.546875 70.683594 C 85.171875 70.867188 84.800781 71.050781 84.425781 71.230469 C 83.894531 71.492188 83.363281 71.75 82.832031 72.007812 C 82.761719 72.042969 82.695312 72.074219 82.625 72.109375 C 82.558594 72.140625 82.5 72.171875 82.429688 72.1875 C 82.410156 72.191406 82.390625 72.195312 82.375 72.199219 C 82.351562 72.199219 82.332031 72.203125 82.308594 72.203125 C 82.28125 72.203125 82.257812 72.199219 82.230469 72.195312 C 82.167969 72.183594 82.109375 72.164062 82.054688 72.136719 C 82.027344 72.117188 82 72.101562 81.972656 72.078125 C 81.949219 72.058594 81.925781 72.035156 81.90625 72.011719 C 81.890625 71.988281 81.875 71.964844 81.859375 71.941406 C 81.847656 71.921875 81.835938 71.898438 81.828125 71.875 C 81.820312 71.859375 81.8125 71.839844 81.804688 71.820312 C 81.800781 71.800781 81.796875 71.785156 81.796875 71.769531 C 81.789062 71.730469 81.785156 71.691406 81.785156 71.652344 C 81.785156 71.601562 81.78125 71.546875 81.777344 71.496094 C 81.757812 71.007812 81.738281 70.519531 81.714844 70.027344 C 81.625 67.914062 81.714844 70.027344 81.445312 63.6875 C 81.445312 63.679688 81.449219 63.675781 81.449219 63.667969 C 81.449219 63.664062 81.449219 63.660156 81.449219 63.660156 C 81.457031 63.429688 81.542969 63.234375 81.707031 63.074219 C 81.707031 63.074219 81.710938 63.070312 81.710938 63.070312 C 81.75 63.03125 81.792969 63 81.839844 62.96875 C 81.839844 62.96875 81.84375 62.964844 81.847656 62.964844 C 81.917969 62.917969 81.992188 62.886719 82.074219 62.863281 C 86.808594 61.25 85.367188 61.738281 87.015625 61.179688 C 87.753906 60.925781 88.496094 60.675781 89.234375 60.421875 C 89.632812 60.289062 90.027344 60.15625 90.425781 60.023438 C 91.210938 59.761719 91.996094 59.496094 92.785156 59.234375 C 93.074219 59.136719 93.363281 59.039062 93.648438 58.945312 C 93.792969 58.894531 93.9375 58.847656 94.078125 58.800781 C 94.136719 58.78125 94.195312 58.757812 94.253906 58.738281 C 94.355469 58.699219 94.457031 58.664062 94.558594 58.625 C 94.871094 58.511719 95.1875 58.398438 95.5 58.28125 C 95.722656 58.203125 95.941406 58.121094 96.160156 58.042969 C 96.269531 58.003906 96.378906 57.964844 96.484375 57.925781 C 96.601562 57.882812 96.71875 57.832031 96.835938 57.785156 C 97.066406 57.695312 97.300781 57.601562 97.53125 57.511719 C 97.824219 57.394531 98.121094 57.277344 98.414062 57.160156 C 98.566406 57.097656 98.71875 57.042969 98.867188 56.980469 C 98.984375 56.929688 99.097656 56.882812 99.210938 56.832031 C 99.4375 56.738281 99.664062 56.640625 99.890625 56.546875 C 100.179688 56.421875 100.46875 56.300781 100.761719 56.179688 C 100.941406 56.101562 101.125 56.023438 101.304688 55.941406 C 101.109375 55.878906 100.910156 55.816406 100.714844 55.753906 C 100.648438 55.734375 100.582031 55.710938 100.515625 55.691406 C 100.414062 55.660156 100.316406 55.632812 100.214844 55.601562 C 100.035156 55.546875 99.855469 55.496094 99.675781 55.441406 C 99.140625 55.285156 98.609375 55.125 98.074219 54.96875 C 97.929688 54.925781 97.785156 54.878906 97.636719 54.832031 C 97.359375 54.746094 97.082031 54.65625 96.804688 54.570312 L 96.007812 54.320312 C 95.875 54.28125 95.742188 54.242188 95.609375 54.199219 C 95.492188 54.160156 95.375 54.113281 95.257812 54.074219 C 95.035156 53.996094 94.8125 53.917969 94.589844 53.839844 C 94.277344 53.726562 93.964844 53.617188 93.648438 53.507812 C 93.5 53.457031 93.347656 53.402344 93.199219 53.347656 C 93.042969 53.292969 92.886719 53.230469 92.730469 53.171875 C 92.421875 53.054688 92.109375 52.9375 91.800781 52.816406 C 91.578125 52.734375 91.359375 52.652344 91.140625 52.566406 C 91.027344 52.527344 90.917969 52.484375 90.808594 52.441406 C 90.660156 52.382812 90.511719 52.320312 90.367188 52.261719 C 90.070312 52.140625 89.777344 52.019531 89.480469 51.898438 C 89.25 51.804688 89.019531 51.710938 88.789062 51.617188 C 88.710938 51.585938 88.632812 51.554688 88.558594 51.523438 C 88.519531 51.507812 88.480469 51.492188 88.441406 51.476562 C 88.316406 51.421875 88.1875 51.359375 88.0625 51.304688 C 87.816406 51.195312 87.570312 51.082031 87.320312 50.972656 C 87.050781 50.847656 86.777344 50.726562 86.503906 50.605469 C 86.417969 50.566406 86.328125 50.523438 86.238281 50.484375 C 86.183594 50.460938 86.125 50.433594 86.070312 50.40625 L 84.566406 49.679688 C 84.316406 49.558594 84.066406 49.4375 83.816406 49.316406 C 83.714844 49.269531 83.613281 49.226562 83.515625 49.179688 C 83.332031 49.09375 83.148438 49.011719 82.964844 48.925781 C 82.882812 48.886719 82.800781 48.851562 82.71875 48.8125 C 82.652344 48.78125 82.582031 48.75 82.511719 48.714844 C 82.429688 48.679688 82.347656 48.640625 82.265625 48.601562 C 82.210938 48.578125 82.152344 48.554688 82.105469 48.519531 C 82.035156 48.460938 81.992188 48.386719 81.980469 48.292969 C 81.980469 48.257812 81.980469 48.21875 81.984375 48.183594 C 81.988281 48.132812 81.992188 48.078125 81.996094 48.027344 C 82.007812 47.859375 82.015625 47.691406 82.027344 47.523438 C 82.03125 47.464844 82.03125 47.40625 82.035156 47.351562 C 82.035156 47.265625 82.039062 47.183594 82.042969 47.097656 C 82.046875 46.847656 82.054688 46.59375 82.0625 46.34375 C 82.070312 46.027344 82.078125 45.714844 82.085938 45.398438 C 82.089844 45.246094 82.097656 45.09375 82.097656 44.941406 C 82.101562 44.886719 82.097656 44.828125 82.097656 44.769531 C 82.097656 44.660156 82.097656 44.550781 82.097656 44.441406 C 82.097656 44.113281 82.097656 43.789062 82.097656 43.464844 C 82.097656 43.222656 82.097656 42.984375 82.097656 42.742188 C 82.097656 42.625 82.101562 42.511719 82.101562 42.394531 C 82.097656 42.285156 82.09375 42.175781 82.09375 42.066406 C 82.082031 41.566406 82.070312 41.070312 82.058594 40.570312 C 82.054688 40.515625 82.054688 40.457031 82.054688 40.398438 C 82.050781 40.355469 82.050781 40.3125 82.050781 40.273438 C 82.050781 40.21875 82.046875 40.171875 82.070312 40.117188 C 82.074219 40.105469 82.078125 40.09375 82.085938 40.085938 C 82.101562 40.058594 82.121094 40.035156 82.140625 40.015625 C 82.167969 39.996094 82.195312 39.976562 82.226562 39.96875 C 82.242188 39.960938 82.253906 39.957031 82.269531 39.957031 C 82.289062 39.953125 82.304688 39.953125 82.320312 39.953125 Z M 82.558594 40.609375 C 82.558594 40.65625 82.554688 40.699219 82.554688 40.742188 C 82.546875 41.09375 82.539062 41.445312 82.53125 41.796875 C 82.527344 41.929688 82.523438 42.058594 82.523438 42.191406 C 82.519531 42.257812 82.519531 42.328125 82.519531 42.394531 C 82.515625 42.546875 82.519531 42.699219 82.519531 42.851562 C 82.519531 43.15625 82.519531 43.460938 82.519531 43.765625 C 82.519531 44.027344 82.519531 44.289062 82.519531 44.550781 C 82.519531 44.679688 82.515625 44.8125 82.519531 44.941406 C 82.523438 45.191406 82.53125 45.4375 82.539062 45.683594 C 82.550781 46.175781 82.566406 46.667969 82.578125 47.160156 C 82.578125 47.234375 82.582031 47.308594 82.582031 47.378906 C 82.585938 47.417969 82.585938 47.453125 82.585938 47.492188 C 82.59375 47.628906 82.605469 47.765625 82.613281 47.898438 C 82.617188 47.9375 82.621094 47.976562 82.621094 48.015625 C 82.636719 48.019531 82.652344 48.023438 82.667969 48.03125 C 82.8125 48.074219 82.957031 48.121094 83.101562 48.164062 C 83.441406 48.269531 83.777344 48.378906 84.117188 48.480469 C 84.222656 48.511719 84.332031 48.542969 84.4375 48.574219 C 84.917969 48.714844 85.398438 48.855469 85.878906 48.992188 C 86.113281 49.0625 86.347656 49.128906 86.582031 49.195312 C 86.65625 49.21875 86.726562 49.242188 86.800781 49.265625 C 86.929688 49.308594 87.0625 49.351562 87.195312 49.394531 C 87.597656 49.523438 88 49.652344 88.40625 49.78125 C 88.542969 49.828125 88.683594 49.871094 88.820312 49.917969 C 88.886719 49.9375 88.953125 49.957031 89.019531 49.980469 C 89.066406 49.996094 89.109375 50.011719 89.15625 50.027344 C 89.242188 50.058594 89.324219 50.089844 89.410156 50.121094 C 89.664062 50.210938 89.917969 50.304688 90.171875 50.394531 C 90.453125 50.496094 90.734375 50.597656 91.015625 50.699219 C 91.152344 50.746094 91.289062 50.792969 91.425781 50.84375 C 91.542969 50.886719 91.65625 50.933594 91.773438 50.980469 C 92.007812 51.070312 92.238281 51.160156 92.472656 51.25 C 92.769531 51.367188 93.066406 51.480469 93.363281 51.597656 C 93.511719 51.65625 93.660156 51.710938 93.808594 51.769531 C 93.960938 51.832031 94.113281 51.898438 94.269531 51.964844 C 94.570312 52.089844 94.871094 52.214844 95.171875 52.339844 C 95.394531 52.433594 95.617188 52.527344 95.84375 52.621094 C 95.949219 52.664062 96.058594 52.707031 96.167969 52.753906 C 96.289062 52.808594 96.40625 52.867188 96.527344 52.921875 C 96.753906 53.023438 96.980469 53.128906 97.210938 53.234375 C 97.492188 53.363281 97.777344 53.492188 98.0625 53.625 C 98.207031 53.691406 98.351562 53.753906 98.496094 53.824219 C 98.742188 53.9375 98.984375 54.058594 99.230469 54.171875 C 99.582031 54.339844 99.933594 54.507812 100.28125 54.675781 C 100.402344 54.734375 100.519531 54.789062 100.640625 54.847656 C 100.695312 54.875 100.753906 54.902344 100.808594 54.925781 C 100.910156 54.972656 101.011719 55.019531 101.113281 55.0625 L 101.683594 55.320312 C 101.738281 55.347656 101.796875 55.371094 101.851562 55.398438 C 101.902344 55.421875 101.953125 55.445312 102.003906 55.464844 C 102.042969 55.484375 102.082031 55.5 102.117188 55.519531 C 102.167969 55.542969 102.21875 55.5625 102.269531 55.585938 C 102.285156 55.59375 102.296875 55.597656 102.3125 55.605469 C 102.320312 55.609375 102.324219 55.609375 102.332031 55.617188 C 102.371094 55.648438 102.445312 55.671875 102.441406 55.722656 C 102.433594 55.882812 102.34375 56.03125 102.292969 56.183594 C 102.292969 56.183594 102.277344 56.1875 102.277344 56.1875 C 102.273438 56.191406 102.273438 56.191406 102.273438 56.191406 C 102.253906 56.195312 102.238281 56.203125 102.222656 56.207031 C 102.15625 56.226562 102.089844 56.25 102.023438 56.269531 C 101.886719 56.316406 101.753906 56.359375 101.617188 56.40625 C 101.542969 56.429688 101.472656 56.449219 101.402344 56.476562 C 101.335938 56.5 101.269531 56.523438 101.203125 56.546875 C 100.714844 56.726562 100.226562 56.902344 99.738281 57.078125 C 99.496094 57.167969 99.253906 57.25 99.011719 57.339844 C 98.953125 57.363281 98.890625 57.386719 98.832031 57.410156 C 98.722656 57.453125 98.617188 57.496094 98.507812 57.535156 C 98.191406 57.660156 97.871094 57.78125 97.554688 57.90625 C 97.347656 57.984375 97.140625 58.066406 96.9375 58.144531 C 96.832031 58.1875 96.726562 58.226562 96.621094 58.269531 C 96.472656 58.328125 96.328125 58.394531 96.179688 58.457031 C 95.882812 58.582031 95.585938 58.707031 95.289062 58.832031 C 95.058594 58.925781 94.832031 59.023438 94.601562 59.121094 C 94.488281 59.167969 94.375 59.214844 94.261719 59.265625 C 94.113281 59.332031 93.964844 59.398438 93.8125 59.46875 C 93.515625 59.601562 93.21875 59.734375 92.921875 59.871094 C 92.027344 60.273438 91.132812 60.679688 90.234375 61.085938 C 89.191406 61.558594 88.144531 62.023438 87.097656 62.492188 C 85.78125 63.078125 85.972656 62.992188 83.148438 64.253906 C 82.996094 67.773438 83.011719 67.425781 82.945312 69.011719 C 82.917969 69.605469 82.894531 70.199219 82.867188 70.792969 C 82.867188 70.835938 82.867188 70.875 82.863281 70.917969 C 83.273438 70.761719 83.679688 70.605469 84.089844 70.449219 C 84.546875 70.277344 85.007812 70.105469 85.464844 69.933594 C 86.328125 69.609375 87.191406 69.285156 88.054688 68.960938 C 88.253906 68.886719 88.453125 68.808594 88.652344 68.734375 C 88.71875 68.710938 88.78125 68.6875 88.847656 68.660156 C 88.882812 68.648438 88.917969 68.636719 88.949219 68.625 C 88.992188 68.605469 89.03125 68.585938 89.074219 68.570312 C 89.148438 68.539062 89.222656 68.507812 89.296875 68.476562 C 89.519531 68.378906 89.742188 68.285156 89.96875 68.1875 C 90.265625 68.0625 90.5625 67.933594 90.859375 67.808594 C 91.003906 67.746094 91.148438 67.6875 91.292969 67.625 C 91.402344 67.574219 91.511719 67.523438 91.621094 67.472656 C 91.828125 67.375 92.035156 67.28125 92.242188 67.183594 C 92.550781 67.042969 92.859375 66.902344 93.164062 66.757812 C 93.265625 66.714844 93.367188 66.667969 93.46875 66.621094 C 93.519531 66.597656 93.570312 66.574219 93.621094 66.550781 C 93.738281 66.492188 93.855469 66.429688 93.972656 66.371094 C 94.207031 66.253906 94.445312 66.136719 94.679688 66.019531 C 94.949219 65.882812 95.222656 65.746094 95.492188 65.609375 C 95.628906 65.542969 95.765625 65.476562 95.902344 65.40625 C 95.976562 65.367188 96.050781 65.324219 96.128906 65.285156 C 96.28125 65.203125 96.433594 65.121094 96.585938 65.042969 C 97.109375 64.765625 97.632812 64.484375 98.160156 64.207031 C 98.304688 64.128906 98.457031 64.054688 98.605469 63.976562 C 98.898438 63.828125 99.1875 63.675781 99.480469 63.523438 C 99.699219 63.414062 99.914062 63.300781 100.128906 63.191406 C 100.234375 63.136719 100.335938 63.082031 100.441406 63.03125 C 100.550781 62.976562 100.660156 62.925781 100.769531 62.875 C 100.980469 62.777344 101.191406 62.675781 101.402344 62.578125 C 101.703125 62.433594 102.003906 62.292969 102.304688 62.148438 C 102.453125 62.078125 102.597656 62.007812 102.746094 61.941406 C 102.875 61.882812 103.003906 61.828125 103.132812 61.769531 C 103.378906 61.660156 103.625 61.554688 103.867188 61.445312 C 104.140625 61.324219 104.414062 61.203125 104.6875 61.082031 C 104.820312 61.023438 104.953125 60.960938 105.089844 60.90625 C 105.28125 60.824219 105.472656 60.746094 105.664062 60.667969 C 106.042969 60.511719 106.421875 60.355469 106.800781 60.195312 C 106.945312 60.136719 107.089844 60.078125 107.234375 60.015625 C 107.304688 59.988281 107.371094 59.957031 107.445312 59.929688 C 107.515625 59.902344 107.585938 59.875 107.65625 59.851562 C 107.792969 59.800781 107.933594 59.746094 108.070312 59.695312 C 108.484375 59.542969 108.894531 59.386719 109.308594 59.234375 C 109.484375 59.167969 109.65625 59.101562 109.835938 59.039062 C 109.871094 59.023438 109.910156 59.011719 109.949219 59 C 110.015625 58.976562 110.085938 58.953125 110.152344 58.929688 C 110.179688 58.921875 110.203125 58.914062 110.230469 58.90625 C 110.234375 58.851562 110.238281 58.800781 110.242188 58.75 C 110.277344 58.351562 110.3125 57.949219 110.347656 57.550781 C 110.390625 56.988281 110.433594 56.425781 110.480469 55.867188 C 110.492188 55.679688 110.507812 55.492188 110.523438 55.304688 C 110.53125 55.214844 110.539062 55.128906 110.542969 55.039062 C 110.550781 54.941406 110.550781 54.84375 110.554688 54.746094 C 110.5625 54.566406 110.570312 54.390625 110.578125 54.210938 C 110.59375 53.808594 110.609375 53.410156 110.625 53.007812 C 110.628906 52.894531 110.632812 52.777344 110.636719 52.660156 C 110.636719 52.652344 110.636719 52.648438 110.636719 52.640625 C 110.597656 52.621094 110.554688 52.601562 110.515625 52.585938 C 110.367188 52.519531 110.21875 52.453125 110.070312 52.386719 C 109.625 52.191406 109.179688 51.996094 108.738281 51.800781 C 108.617188 51.75 108.496094 51.695312 108.375 51.644531 C 108.234375 51.582031 108.085938 51.523438 107.941406 51.464844 C 107.667969 51.347656 107.390625 51.234375 107.117188 51.121094 C 106.867188 51.019531 106.621094 50.914062 106.371094 50.8125 C 106.292969 50.78125 106.214844 50.746094 106.132812 50.714844 C 106.09375 50.699219 106.050781 50.679688 106.007812 50.664062 C 105.859375 50.605469 105.707031 50.546875 105.554688 50.492188 C 105.261719 50.382812 104.964844 50.269531 104.671875 50.160156 C 104.4375 50.070312 104.199219 49.980469 103.960938 49.890625 C 103.847656 49.847656 103.734375 49.804688 103.621094 49.761719 C 103.496094 49.71875 103.371094 49.679688 103.246094 49.636719 C 103 49.550781 102.757812 49.46875 102.511719 49.386719 C 102.074219 49.234375 101.640625 49.085938 101.203125 48.9375 C 100.785156 48.792969 100.367188 48.648438 99.953125 48.503906 C 99.6875 48.414062 99.425781 48.320312 99.160156 48.230469 C 99.03125 48.1875 98.902344 48.144531 98.773438 48.097656 C 98.640625 48.046875 98.507812 47.996094 98.375 47.945312 C 98.109375 47.84375 97.847656 47.746094 97.582031 47.644531 C 97.316406 47.542969 97.050781 47.441406 96.785156 47.34375 C 96.652344 47.292969 96.519531 47.242188 96.390625 47.191406 C 96.339844 47.171875 96.296875 47.152344 96.25 47.132812 C 96.15625 47.09375 96.0625 47.054688 95.96875 47.015625 C 95.6875 46.898438 95.410156 46.78125 95.128906 46.667969 C 94.882812 46.5625 94.632812 46.460938 94.386719 46.355469 C 94.265625 46.308594 94.144531 46.257812 94.023438 46.207031 C 93.871094 46.140625 93.71875 46.070312 93.566406 46.003906 L 92.664062 45.605469 C 92.445312 45.511719 92.226562 45.414062 92.011719 45.320312 C 91.902344 45.273438 91.796875 45.226562 91.691406 45.179688 C 91.609375 45.140625 91.527344 45.101562 91.445312 45.0625 C 91.28125 44.984375 91.113281 44.90625 90.949219 44.828125 L 89.496094 44.144531 C 89.457031 44.125 89.421875 44.109375 89.386719 44.09375 C 89.339844 44.070312 89.292969 44.046875 89.25 44.023438 C 89.171875 43.984375 89.097656 43.945312 89.019531 43.90625 C 88.808594 43.796875 88.597656 43.6875 88.382812 43.578125 C 88.101562 43.433594 87.816406 43.289062 87.53125 43.144531 C 87.386719 43.070312 87.242188 42.996094 87.097656 42.921875 C 86.796875 42.765625 86.496094 42.605469 86.195312 42.449219 C 85.90625 42.296875 85.613281 42.140625 85.320312 41.988281 C 85.160156 41.902344 85 41.816406 84.835938 41.734375 C 84.777344 41.703125 84.71875 41.675781 84.660156 41.648438 C 84.117188 41.378906 83.570312 41.109375 83.027344 40.839844 C 82.921875 40.789062 82.816406 40.738281 82.714844 40.6875 C 82.664062 40.660156 82.609375 40.636719 82.558594 40.609375 Z M 110.199219 59.261719 C 110.199219 59.265625 110.199219 59.269531 110.199219 59.273438 C 110.195312 59.292969 110.195312 59.316406 110.195312 59.339844 C 110.195312 59.328125 110.195312 59.320312 110.195312 59.3125 C 110.195312 59.304688 110.199219 59.292969 110.199219 59.285156 C 110.199219 59.277344 110.199219 59.269531 110.199219 59.261719 Z M 110.199219 59.261719 " fill-opacity="1" fill-rule="nonzero"/></g></svg>